<?xml version="1.0" standalone="no"?>
<!DOCTYPE svg PUBLIC "-//W3C//DTD SVG 20010904//EN"
 "http://www.w3.org/TR/2001/REC-SVG-20010904/DTD/svg10.dtd">
<svg version="1.0" xmlns="http://www.w3.org/2000/svg"
 width="500.000000pt" height="500.000000pt" viewBox="0 0 500.000000 500.000000"
 preserveAspectRatio="xMidYMid meet">

<g transform="translate(0.000000,500.000000) scale(0.100000,-0.100000)"
fill="#000000" stroke="none">
<path d="M2465 3155 c0 -253 1 -355 2 -227 2 128 2 335 0 460 -1 125 -2 20 -2
-233z"/>
<path d="M765 3310 c-38 -4 -125 -8 -192 -9 -117 -1 -157 -12 -93 -24 70 -15
79 -82 79 -592 0 -521 -7 -572 -90 -600 -30 -10 -11 -13 146 -20 99 -5 248 -9
330 -9 184 0 239 16 321 98 52 52 94 138 94 191 0 23 -4 25 -49 25 l-49 0 -11
-50 c-15 -71 -43 -120 -92 -164 -84 -77 -217 -109 -359 -87 -44 7 -93 17 -110
22 l-30 11 0 583 0 583 36 12 c49 17 177 26 251 19 177 -17 277 -151 213 -284
-30 -62 -90 -107 -249 -189 -136 -70 -191 -117 -191 -160 0 -13 7 -29 15 -36
10 -8 15 -31 15 -66 0 -41 4 -54 15 -54 11 0 15 11 15 38 1 39 5 37 36 -15 10
-16 13 -15 33 17 l21 35 0 -37 c0 -27 4 -38 15 -38 12 0 15 14 15 70 0 39 -4
70 -10 70 -5 0 -20 -18 -32 -40 -13 -22 -26 -40 -31 -40 -9 0 -32 48 -26 54
18 16 177 66 208 66 22 0 43 5 47 12 12 20 -103 0 -182 -32 -107 -43 -163 -35
-134 19 14 27 60 50 205 101 148 52 204 80 256 127 58 53 82 105 83 179 0 112
-69 185 -202 213 -57 12 -204 12 -317 1z"/>
<path d="M3795 3310 c-33 -4 -109 -8 -168 -9 -103 -1 -132 -11 -68 -24 59 -12
65 -42 71 -322 l5 -250 52 -3 53 -3 2 288 3 288 55 12 c76 18 225 17 282 0
146 -45 253 -174 305 -367 25 -93 25 -378 0 -470 -76 -281 -260 -416 -514
-381 -143 20 -133 8 -133 166 l0 136 -52 -3 -53 -3 -6 -100 c-8 -128 -17 -151
-71 -174 l-43 -18 130 -6 c72 -4 189 -10 260 -13 154 -8 215 3 314 52 128 64
225 192 273 361 32 113 32 324 0 438 -33 113 -77 190 -152 266 -129 130 -288
170 -545 139z"/>
<path d="M1840 3292 c0 -5 13 -12 30 -15 62 -13 78 -88 82 -392 l2 -190 6 254
5 253 116 -248 115 -249 57 -3 c31 -2 57 1 57 5 0 4 -62 139 -138 298 l-139
290 -96 3 c-54 1 -97 -1 -97 -6z"/>
<path d="M2767 3018 c-58 -156 -109 -292 -113 -303 -5 -14 -4 -17 4 -10 6 6
55 129 109 275 l98 265 3 -273 2 -273 53 3 52 3 5 250 c6 280 12 310 71 322
65 13 35 23 -69 23 l-109 0 -106 -282z"/>
<path d="M1012 2580 c-29 -65 -30 -70 -11 -70 10 0 19 7 19 15 0 10 10 15 34
15 21 0 36 -6 40 -15 4 -13 36 -22 36 -11 0 19 -63 136 -74 136 -7 0 -27 -31
-44 -70z m58 -7 c0 -7 -7 -13 -15 -13 -16 0 -19 9 -9 35 5 13 8 14 15 3 5 -7
9 -19 9 -25z"/>
<path d="M1210 2580 c0 -56 3 -70 15 -70 11 0 15 11 15 38 l0 37 19 -28 c10
-16 22 -29 26 -29 4 0 16 13 26 29 l19 28 0 -37 c0 -27 4 -38 15 -38 12 0 15
14 15 70 0 39 -4 70 -10 70 -5 0 -21 -18 -35 -40 -14 -22 -27 -40 -30 -40 -3
0 -16 18 -30 40 -14 22 -30 40 -35 40 -6 0 -10 -31 -10 -70z"/>
<path d="M1470 2584 c-16 -37 -30 -68 -30 -70 0 -11 32 -2 36 11 8 20 64 19
79 -1 6 -9 17 -15 22 -13 15 6 -46 139 -63 139 -8 0 -27 -30 -44 -66z m60 -11
c0 -7 -7 -13 -15 -13 -16 0 -19 9 -9 35 5 13 8 14 15 3 5 -7 9 -19 9 -25z"/>
<path d="M1670 2581 l0 -71 45 0 c53 0 85 25 85 68 0 39 -27 61 -83 68 l-47 7
0 -72z m90 24 c7 -8 10 -25 6 -40 -5 -20 -13 -25 -36 -25 -28 0 -30 2 -30 40
0 35 3 40 24 40 13 0 29 -7 36 -15z"/>
<path d="M1906 2629 c-52 -41 -21 -119 47 -119 73 0 97 99 32 128 -36 17 -48
15 -79 -9z m68 -15 c21 -8 21 -60 0 -72 -25 -14 -53 -3 -60 24 -10 40 20 63
60 48z"/>
<path d="M2110 2597 c0 -61 19 -87 63 -87 41 0 57 24 57 87 0 67 -23 70 -28 2
-4 -55 -17 -72 -43 -58 -15 7 -19 21 -19 59 0 38 -4 50 -15 50 -11 0 -15 -13
-15 -53z"/>
<path d="M2448 2644 c-5 -4 -8 -36 -8 -71 l0 -63 44 0 c117 0 131 121 16 136
-25 3 -48 2 -52 -2z m94 -49 c14 -30 -3 -55 -38 -55 -21 0 -24 5 -24 40 0 36
2 40 25 40 17 0 29 -8 37 -25z"/>
<path d="M2667 2644 c-4 -4 -7 -36 -7 -71 0 -57 2 -63 20 -63 19 0 21 5 18 67
-3 61 -14 84 -31 67z"/>
<path d="M2820 2637 c-63 -32 -41 -119 33 -125 69 -6 102 64 52 113 -27 28
-48 31 -85 12z m68 -29 c18 -18 14 -45 -10 -62 -37 -26 -74 7 -57 52 9 24 47
30 67 10z"/>
<path d="M3014 2635 c-8 -20 4 -95 18 -112 6 -7 26 -13 44 -13 44 0 66 33 62
91 -4 60 -28 64 -28 6 0 -88 -57 -101 -62 -14 -3 50 -22 74 -34 42z"/>
<path d="M3230 2580 c0 -56 3 -70 15 -70 11 0 15 11 15 38 l0 37 19 -28 c10
-16 22 -29 26 -29 4 0 16 13 26 29 l19 28 0 -37 c0 -27 4 -38 15 -38 12 0 15
14 15 70 0 39 -4 70 -10 70 -5 0 -21 -18 -35 -40 -14 -22 -27 -40 -30 -40 -3
0 -16 18 -30 40 -14 22 -30 40 -35 40 -6 0 -10 -31 -10 -70z"/>
<path d="M3490 2584 c-16 -37 -30 -68 -30 -70 0 -11 32 -2 36 11 8 20 64 19
79 -1 6 -9 17 -15 22 -13 15 6 -46 139 -63 139 -8 0 -27 -30 -44 -66z m60 -11
c0 -7 -7 -13 -15 -13 -16 0 -19 9 -9 35 5 13 8 14 15 3 5 -7 9 -19 9 -25z"/>
<path d="M3807 2643 c-4 -3 -7 -35 -7 -70 l0 -63 48 0 c60 0 92 20 76 48 -7
10 -10 30 -7 45 4 22 1 28 -22 37 -30 11 -78 13 -88 3z m81 -35 c-7 -20 -58
-23 -58 -4 0 11 10 16 31 16 20 0 29 -4 27 -12z m-4 -44 c13 -5 14 -9 5 -20
-21 -26 -71 -11 -54 16 7 11 26 13 49 4z"/>
<path d="M4030 2586 c-17 -36 -30 -68 -30 -71 0 -12 28 -4 34 10 7 20 63 19
74 -1 5 -9 16 -14 24 -13 13 3 10 16 -16 68 -17 36 -37 67 -44 69 -7 2 -24
-22 -42 -62z m56 -23 c-2 -3 -11 -3 -19 -1 -11 2 -12 9 -5 28 l10 25 9 -24 c5
-13 7 -26 5 -28z"/>
<path d="M4227 2644 c-4 -4 -7 -36 -7 -71 0 -56 2 -63 20 -63 16 0 20 7 20 31
0 27 3 30 28 27 21 -2 28 -9 30 -30 2 -17 9 -28 18 -28 12 0 14 13 12 67 -2
42 -8 68 -15 71 -9 2 -13 -7 -13 -27 0 -28 -3 -31 -29 -31 -25 0 -30 5 -33 27
-3 26 -18 39 -31 27z"/>
<path d="M1943 2259 c-12 -125 -26 -154 -84 -175 -29 -11 -10 -12 141 -12 167
0 173 1 128 14 -78 24 -134 112 -153 237 -4 26 -10 47 -14 47 -4 0 -12 -50
-18 -111z"/>
<path d="M2360 2361 c0 -5 23 -58 51 -117 l52 -108 -5 -293 c-3 -162 -2 -293
3 -293 5 0 10 147 11 328 l3 327 32 83 c18 45 30 82 27 82 -3 0 -11 -14 -18
-31 l-13 -31 -13 31 c-12 30 -15 31 -71 31 -33 0 -59 -4 -59 -9z"/>
<path d="M2867 2275 c-7 -114 -26 -162 -77 -187 -34 -17 -32 -17 135 -17 l170
0 -43 19 c-54 24 -63 48 -71 175 l-6 100 -51 3 -51 3 -6 -96z"/>
</g>
</svg>
